<svg width="24" height="24" viewBox="0 0 24 24" fill="none" xmlns="http://www.w3.org/2000/svg">
<path d="M20.0625 6.90039H3.9375C3 6.90039 2.25 7.65039 2.25 8.58789V15.4504C2.25 16.3879 3 17.1379 3.9375 17.1379H20.0625C21 17.1379 21.75 16.3879 21.75 15.4504V13.7254C21.75 13.5379 21.6 13.3504 21.4125 13.3504C20.7 13.2754 20.2125 12.7129 20.2125 12.0379C20.2125 11.3629 20.7375 10.8004 21.4125 10.7254C21.6 10.7254 21.75 10.5379 21.75 10.3504V8.62539C21.75 7.65039 21 6.90039 20.0625 6.90039ZM21 10.0129C20.1 10.2379 19.425 11.0629 19.425 12.0004C19.425 12.9379 20.0625 13.7629 21 13.9879V15.4129C21 15.9379 20.5875 16.3504 20.0625 16.3504H16.95V15.4129C16.95 15.1879 16.8 15.0379 16.575 15.0379C16.35 15.0379 16.2 15.1879 16.2 15.4129V16.3504H3.9375C3.4125 16.3504 3 15.9379 3 15.4129V8.58789C3 8.06289 3.4125 7.65039 3.9375 7.65039H16.2V8.58789C16.2 8.81289 16.35 8.96289 16.575 8.96289C16.8 8.96289 16.95 8.81289 16.95 8.58789V7.65039H20.0625C20.5875 7.65039 21 8.06289 21 8.58789V10.0129Z" fill="#666666"/>
<path d="M16.5752 10.5C16.3502 10.5 16.2002 10.65 16.2002 10.875V13.125C16.2002 13.35 16.3502 13.5 16.5752 13.5C16.8002 13.5 16.9502 13.35 16.9502 13.125V10.875C16.9502 10.65 16.7627 10.5 16.5752 10.5Z" fill="#666666"/>
</svg>
